<svg width="129" height="129" viewBox="0 0 129 129" fill="none" xmlns="http://www.w3.org/2000/svg">
<g id="Value Icons" clip-path="url(#clip0_486_1076)">
<path id="Vector" d="M64.7461 128.259C100.092 128.259 128.746 99.605 128.746 64.2588C128.746 28.9126 100.092 0.258789 64.7461 0.258789C29.3999 0.258789 0.746094 28.9126 0.746094 64.2588C0.746094 99.605 29.3999 128.259 64.7461 128.259Z" fill="#EF680C"/>
<path id="Vector_2" d="M92.9558 68.417C92.9558 69.4565 92.906 70.491 92.7817 71.5056H35.1926C35.0733 70.491 35.0186 69.4565 35.0186 68.417C35.0186 65.8755 35.3468 63.4086 35.9635 61.0661C38.0475 53.0586 43.4786 46.404 50.6654 42.6688V61.0661H54.9676V37.9937H72.9918V61.0661H77.294V42.6788C84.4808 46.404 89.9119 53.0586 91.9959 61.0661C92.6176 63.4086 92.9408 65.8805 92.9408 68.417H92.9558Z" fill="white"/>
<path id="Vector_3" d="M98.01 75.7227H31.4834V83.6356H98.01V75.7227Z" fill="white"/>
</g>
<defs>
<clipPath id="clip0_486_1076">
<rect width="129" height="129" fill="white"/>
</clipPath>
</defs>
</svg>
