<?xml version="1.0" encoding="UTF-8" standalone="no"?>
<svg
   width="201.48242"
   height="38.815674"
   viewBox="0 0 201.48242 38.815674"
   fill="none"
   version="1.1"
   id="svg26"
   sodipodi:docname="logo-medium.svg"
   inkscape:version="1.3.2 (091e20e, 2023-11-25)"
   xmlns:inkscape="http://www.inkscape.org/namespaces/inkscape"
   xmlns:sodipodi="http://sodipodi.sourceforge.net/DTD/sodipodi-0.dtd"
   xmlns="http://www.w3.org/2000/svg"
   xmlns:svg="http://www.w3.org/2000/svg">
  <sodipodi:namedview
     id="namedview26"
     pagecolor="#ffffff"
     bordercolor="#000000"
     borderopacity="0.25"
     inkscape:showpageshadow="2"
     inkscape:pageopacity="0.0"
     inkscape:pagecheckerboard="0"
     inkscape:deskcolor="#d1d1d1"
     inkscape:zoom="3.9318182"
     inkscape:cx="109.23699"
     inkscape:cy="23.017341"
     inkscape:window-width="1392"
     inkscape:window-height="1212"
     inkscape:window-x="0"
     inkscape:window-y="25"
     inkscape:window-maximized="0"
     inkscape:current-layer="svg26" />
  <g
     clip-path="url(#clip0_484_364)"
     id="g18"
     transform="translate(-0.679688,-0.586426)">
    <path
       d="M 81.5198,4.47046 76.9478,16.0975 73.1294,4.47046 H 67.5525 L 63.6336,16.0975 59.2123,4.47046 h -4.6977 l 6.1296,15.25894 h 6.1546 L 70.3409,8.73287 73.7071,19.7294 H 79.912 L 86.2174,4.47046 Z"
       fill="#ef680c"
       id="path1" />
    <path
       d="M 98.1504,4.47046 H 91.9455 L 83.4043,19.7294 h 5.2503 l 1.457,-2.7239 h 9.7972 l 1.5072,2.7239 h 5.049 z m -6.4059,9.35714 3.2406,-6.07836 3.2909,6.07836 z"
       fill="#ef680c"
       id="path2" />
    <path
       d="M 109.329,4.47046 V 19.7294 h 4.622 V 4.47046 Z"
       fill="#ef680c"
       id="path3" />
    <path
       d="m 138.218,19.7294 h -6.732 l -4.974,-4.2624 -4.221,4.2624 h -4.622 V 4.47046 h 4.622 v 9.20584 l 8.717,-9.20584 h 6.356 l -8.014,8.12124 z"
       fill="#ef680c"
       id="path4" />
    <path
       d="m 155.25,4.47046 h -6.205 l -8.541,15.25894 h 5.25 l 1.457,-2.7239 h 9.798 l 1.507,2.7239 h 5.049 z m -6.406,9.35714 3.241,-6.07836 3.291,6.07836 z"
       fill="#ef680c"
       id="path5" />
    <path
       d="m 160.802,4.47046 v 3.7832 h 6.783 V 19.7546 h 4.622 V 8.25366 h 6.783 v -3.7832 z"
       fill="#ef680c"
       id="path6" />
    <path
       d="m 202.051,8.63202 c -0.327,-2.44647 -1.457,-3.6571 -3.819,-4.11108 -1.08,-0.17655 -2.411,-0.22699 -6.808,-0.22699 -4.019,0 -5.401,0.10088 -6.682,0.45398 -1.708,0.50443 -2.587,1.36195 -3.039,3.00134 -0.277,1.03408 -0.327,1.66461 -0.327,4.23723 0,3.3544 0.126,4.4641 0.728,5.5739 0.578,1.1349 1.558,1.7655 3.241,2.0681 0.904,0.1766 2.763,0.2522 6.381,0.2522 1.482,0 3.517,-0.0252 4.321,-0.0756 2.21,-0.1009 3.492,-0.454 4.396,-1.2359 1.306,-1.0845 1.683,-2.5725 1.683,-6.2549 0.075,-1.8159 0.025,-3.07697 -0.075,-3.68228 z m -4.999,6.65848 c -0.528,0.7314 -1.357,0.8827 -5.326,0.8827 -3.492,0 -4.246,-0.1009 -4.849,-0.6053 -0.577,-0.4792 -0.753,-1.3115 -0.753,-3.5562 0,-2.19428 0.176,-2.95092 0.804,-3.43012 0.603,-0.42877 1.532,-0.55487 4.923,-0.55487 5.703,0 5.778,0.05044 5.778,3.88409 -0.025,2.0681 -0.15,2.8248 -0.577,3.3797 z"
       fill="#ef680c"
       id="path7" />
    <path
       d="m 54.6143,25.3032 h 13.3392 c 3.0648,0 5.0243,0.5044 6.1296,1.5133 0.9797,0.9584 1.3816,2.4969 1.3816,5.4983 0,3.0517 -0.4521,4.565 -1.6831,5.5234 -1.0048,0.8071 -2.713,1.1602 -5.4261,1.1602 H 54.6143 Z m 12.9122,11.2235 c 1.3063,0 2.1855,-0.1513 2.8387,-0.454 0.9294,-0.4287 1.3314,-1.488 1.3314,-3.6066 0,-3.8084 -0.7034,-4.5651 -4.1701,-4.5651 h -9.1943 v 8.6257 z"
       fill="#ffffff"
       id="path8" />
    <path
       d="m 79.3836,25.3032 h 13.6157 c 2.8135,0 4.0947,0.2775 4.9739,1.0845 0.7034,0.6558 1.03,1.7151 1.03,3.2788 0,1.5133 -0.2261,2.3456 -0.7034,2.85 -0.4773,0.5045 -1.0551,0.7567 -2.0348,0.908 2.0348,0.1513 2.487,0.681 2.4619,2.85 v 2.7239 h -3.7431 v -2.0681 c -0.0502,-1.8664 -0.5526,-2.2447 -2.9894,-2.2195 h -8.9431 v 4.2876 H 79.3585 V 25.3032 Z m 12.4852,6.9107 c 2.688,0 3.3662,-0.4036 3.3662,-2.0682 0,-1.8916 -0.5526,-2.2699 -3.2908,-2.2699 h -8.8929 v 4.3381 z"
       fill="#ffffff"
       id="path9" />
    <path
       d="m 102.947,25.3032 h 3.718 v 13.7204 h -3.718 z"
       fill="#ffffff"
       id="path10" />
    <path
       d="m 110.961,25.3032 h 3.718 v 11.1479 h 11.731 v 2.5725 h -15.449 z"
       fill="#ffffff"
       id="path11" />
    <path
       d="m 129.048,25.3032 h 3.692 v 11.1479 h 11.732 v 2.5725 h -15.45 V 25.3032 Z"
       fill="#ffffff"
       id="path12" />
    <path
       d="m 147.11,25.3032 h 3.718 v 13.7204 h -3.718 z"
       fill="#ffffff"
       id="path13" />
    <path
       d="m 155.124,25.3032 h 5.753 l 12.083,11.4001 -0.075,-11.4001 h 3.542 v 13.7204 h -5.778 l -12.008,-11.3496 0.075,11.3496 h -3.592 z"
       fill="#ffffff"
       id="path14" />
    <path
       d="m 200.919,31.6843 v 1.4628 c 0,2.4969 -0.176,3.4049 -0.754,4.3129 -0.477,0.7314 -1.281,1.1854 -2.537,1.4628 -0.879,0.1766 -2.236,0.227 -7.084,0.227 -4.271,0 -6.33,-0.1261 -7.335,-0.454 -1.533,-0.5044 -2.337,-1.2863 -2.663,-2.7491 -0.201,-0.7819 -0.276,-1.6898 -0.276,-3.6319 0,-3.6066 0.276,-4.7668 1.306,-5.7252 0.678,-0.6053 1.608,-0.9837 2.889,-1.135 1.482,-0.1765 3.215,-0.2522 7.938,-0.2522 4.698,0 6.381,0.2774 7.386,1.2863 0.703,0.6557 1.03,1.715 1.03,3.2535 h -3.643 c -0.025,-0.8575 -0.151,-1.1854 -0.603,-1.5132 -0.628,-0.4288 -1.457,-0.5045 -4.572,-0.5045 -5.803,0 -6.707,0.0757 -7.335,0.7314 -0.503,0.5045 -0.679,1.3872 -0.679,3.531 0,2.6735 0.201,3.6067 0.88,4.0859 0.703,0.5296 1.607,0.6305 5.978,0.6305 4.773,0 5.276,-0.0756 6.004,-0.9584 0.302,-0.3531 0.427,-1.0088 0.427,-1.942 h -7.159 v -2.0682 h 10.802 z"
       fill="#ffffff"
       id="path15" />
    <path
       d="M 23.2635,0.586426 V 11.7595 L 14.3455,25.6312 0.679688,4.54618 H 7.88943 l 6.43097,9.93722 z"
       fill="url(#paint0_linear_484_364)"
       id="path16"
       style="fill:url(#paint0_linear_484_364)" />
    <path
       d="M 15.9033,28.0272 23.2638,16.5767 V 39.402 Z"
       fill="url(#paint1_linear_484_364)"
       id="path17"
       style="fill:url(#paint1_linear_484_364)" />
    <path
       d="M 35.799,20.0573 23.2635,39.4021 V 28.2795 l 5.3257,-8.2474 -5.3257,-8.2978 V 0.586426 Z m 2.8386,-15.51112 -4.8734,7.51592 3.5923,5.574 8.4909,-13.08992 z"
       fill="url(#paint2_linear_484_364)"
       id="path18"
       style="fill:url(#paint2_linear_484_364)" />
  </g>
  <defs
     id="defs26">
    <linearGradient
       id="paint0_linear_484_364"
       x1="-27.014999"
       y1="13.1088"
       x2="22.503"
       y2="13.1088"
       gradientUnits="userSpaceOnUse">
      <stop
         stop-color="#DB390C"
         id="stop18" />
      <stop
         offset="0.4451"
         stop-color="#EF680C"
         id="stop19" />
      <stop
         offset="0.8917"
         stop-color="#FF8500"
         id="stop20" />
    </linearGradient>
    <linearGradient
       id="paint1_linear_484_364"
       x1="-27.014799"
       y1="27.9893"
       x2="22.5033"
       y2="27.9893"
       gradientUnits="userSpaceOnUse">
      <stop
         stop-color="#DB390C"
         id="stop21" />
      <stop
         offset="0.4525"
         stop-color="#EF680C"
         id="stop22" />
      <stop
         offset="1"
         stop-color="#FF8500"
         id="stop23" />
    </linearGradient>
    <linearGradient
       id="paint2_linear_484_364"
       x1="13.2224"
       y1="19.994301"
       x2="53.9566"
       y2="19.994301"
       gradientUnits="userSpaceOnUse">
      <stop
         stop-color="#DB390C"
         id="stop24" />
      <stop
         offset="0.4525"
         stop-color="#EF680C"
         id="stop25" />
      <stop
         offset="1"
         stop-color="#FF8500"
         id="stop26" />
    </linearGradient>
    <clipPath
       id="clip0_484_364">
      <rect
         width="219.685"
         height="45.827202"
         fill="#ffffff"
         transform="translate(0,0.586426)"
         id="rect26"
         x="0"
         y="0" />
    </clipPath>
  </defs>
</svg>
