<svg width="129" height="129" viewBox="0 0 129 129" fill="none" xmlns="http://www.w3.org/2000/svg">
<g id="Value Icons" clip-path="url(#clip0_486_1291)">
<path id="Vector" d="M64.75 128.259C100.096 128.259 128.75 99.605 128.75 64.2588C128.75 28.9126 100.096 0.258789 64.75 0.258789C29.4038 0.258789 0.75 28.9126 0.75 64.2588C0.75 99.605 29.4038 128.259 64.75 128.259Z" fill="#EF680C"/>
<path id="Vector_2" d="M52.9382 59.6483L52.4607 59.514L51.9385 59.3748C50.2326 58.947 48.5217 58.7282 46.8605 58.7282C46.5869 58.7282 46.3233 58.7332 46.0647 58.7431C44.7417 55.9729 44.0703 52.9986 44.0703 49.8951C44.0703 38.5156 53.3212 29.2598 64.6957 29.2598C76.0703 29.2598 85.3212 38.5156 85.3212 49.8951C85.3212 56.2812 82.4315 62.1948 77.3933 66.1388L52.9332 59.6483H52.9382ZM63.89 59.9467H66.5758V56.1967H66.8692C71.4051 56.1967 72.355 53.4065 72.355 51.0689C72.355 47.9455 70.4601 46.4286 66.5708 46.4286H62.8107C61.0352 46.4286 60.8064 45.5831 60.8064 44.842C60.8064 43.8125 61.4032 43.3101 62.6317 43.3101H71.7234V39.7142H66.5807V35.4519H63.895V39.7142H62.6118C58.9861 39.7142 57.1508 41.3555 57.1508 44.5933C57.1508 47.8311 59.0358 49.4475 62.9102 49.4475H66.6951C68.4806 49.4475 68.7044 50.298 68.7044 51.0391C68.7044 52.0636 68.1026 52.561 66.8742 52.561H57.3299V56.1917H63.895V59.9418L63.89 59.9467Z" fill="white"/>
<path id="Vector_3" d="M22.4395 81.6121L38.6086 65.7066C39.1556 65.259 42.1348 63.0308 46.8597 63.0308C47.3272 63.0308 47.8146 63.0557 48.307 63.1054C49.1277 63.1801 49.9682 63.3243 50.8784 63.5481L51.3409 63.6675L51.7438 63.7868L77.8153 70.7001C79.6157 71.0383 80.9138 72.595 80.9138 74.4104C80.9138 74.6541 80.8939 74.863 80.8591 75.057L80.8342 75.1714C80.4811 76.9071 78.9492 78.1605 77.1936 78.1605C76.9001 78.1605 76.5967 78.1207 76.3133 78.0461L75.7512 77.9068L58.5029 73.4406C58.5029 73.4406 58.3835 73.4008 58.2343 73.3659C58.0503 73.3361 57.916 73.3311 57.7817 73.3311C56.4836 73.3311 55.4242 74.3905 55.4242 75.6886C55.4242 75.997 55.4789 76.2854 55.5983 76.5739C55.8718 77.2354 56.414 77.7327 57.0854 77.9466C57.1948 77.9765 57.2843 77.9963 57.3888 78.0113L76.5918 82.7859L76.6863 82.7959C76.8603 82.8058 77.0294 82.8058 77.1985 82.8058C78.3624 82.8058 79.4864 82.572 80.5408 82.1145C82.958 81.0551 84.7584 78.8916 85.3552 76.3203C85.5044 75.6886 85.579 75.042 85.579 74.4054C85.579 72.5105 84.9623 70.715 83.7935 69.218C83.7338 69.1185 83.6344 68.9991 83.505 68.8698C83.3857 68.7306 83.2514 68.5863 83.1121 68.4471L97.9135 57.0526C101.34 53.9292 102.952 53.9292 103.817 53.9292C104.106 53.9292 104.384 53.964 104.608 54.0187C106.065 54.4365 106.657 55.5406 106.901 56.3911C107.284 57.7141 106.975 59.1117 105.996 60.5391L105.926 60.6435L78.3275 88.1226L78.2778 88.1972C76.8156 90.3159 73.9309 90.5447 72.7571 90.5447C72.5482 90.5447 72.4189 90.5397 72.3742 90.5347C71.3098 90.3706 46.5961 86.6106 45.5566 86.6106C43.4926 86.6106 42.5924 87.4064 42.4283 87.5655L34.948 94.5484L22.4395 81.6171V81.6121Z" fill="white"/>
</g>
<defs>
<clipPath id="clip0_486_1291">
<rect width="128" height="129" fill="white" transform="translate(0.75)"/>
</clipPath>
</defs>
</svg>
