<svg width="129" height="129" viewBox="0 0 129 129" fill="none" xmlns="http://www.w3.org/2000/svg">
<g id="Value Icons" clip-path="url(#clip0_486_1140)">
<path id="Vector" d="M64.7461 128.017C100.092 128.017 128.746 99.3628 128.746 64.0166C128.746 28.6704 100.092 0.0166016 64.7461 0.0166016C29.3999 0.0166016 0.746094 28.6704 0.746094 64.0166C0.746094 99.3628 29.3999 128.017 64.7461 128.017Z" fill="#EF680C"/>
<path id="Vector_2" d="M64.7465 78.4008C72.119 78.4008 78.0956 72.4242 78.0956 65.0517C78.0956 57.6792 72.119 51.7026 64.7465 51.7026C57.3741 51.7026 51.3975 57.6792 51.3975 65.0517C51.3975 72.4242 57.3741 78.4008 64.7465 78.4008Z" fill="white"/>
<path id="Vector_3" d="M92.9624 98.3096H36.5322C39.9938 87.9944 47.2801 80.0119 56.2873 76.8934C58.968 75.9584 61.8079 75.4561 64.7473 75.4561C67.6867 75.4561 70.5266 75.9534 73.2074 76.8934C82.2145 80.0119 89.5008 87.9895 92.9624 98.3096Z" fill="white"/>
<path id="Vector_4" d="M65.7008 18.8421L67.7499 25.1436C67.8841 25.5564 68.2721 25.8399 68.7098 25.8399H75.3346C76.3094 25.8399 76.7172 27.0883 75.9264 27.6602L70.5649 31.5545C70.2118 31.8132 70.0626 32.2658 70.1969 32.6786L72.246 38.9801C72.5494 39.9101 71.485 40.6811 70.6942 40.1041L65.3327 36.2098C64.9796 35.9512 64.5021 35.9512 64.149 36.2098L58.7875 40.1041C57.9967 40.6761 56.9373 39.9052 57.2357 38.9801L59.2848 32.6786C59.4191 32.2658 59.2699 31.8082 58.9168 31.5545L53.5553 27.6602C52.7645 27.0883 53.1723 25.8399 54.1471 25.8399H60.7719C61.2096 25.8399 61.5975 25.5614 61.7318 25.1436L63.7809 18.8421C64.0843 17.912 65.3974 17.912 65.6958 18.8421H65.7008Z" fill="white"/>
<path id="Vector_5" d="M93.9156 35.3592L95.9647 41.6607C96.099 42.0735 96.4869 42.357 96.9246 42.357H103.549C104.524 42.357 104.932 43.6054 104.141 44.1773L98.7797 48.0716C98.4266 48.3303 98.2774 48.7829 98.4117 49.1957L100.461 55.4972C100.764 56.4272 99.6999 57.1981 98.9091 56.6212L93.5475 52.7269C93.1944 52.4683 92.717 52.4683 92.3638 52.7269L87.0023 56.6212C86.2115 57.1932 85.1521 56.4223 85.4506 55.4972L87.4997 49.1957C87.634 48.7829 87.4848 48.3253 87.1316 48.0716L81.7701 44.1773C80.9793 43.6054 81.3872 42.357 82.362 42.357H88.9868C89.4244 42.357 89.8124 42.0785 89.9467 41.6607L91.9958 35.3592C92.2992 34.4291 93.6122 34.4291 93.9106 35.3592H93.9156Z" fill="white"/>
<path id="Vector_6" d="M37.4869 35.3592L39.536 41.6607C39.6703 42.0735 40.0582 42.357 40.4959 42.357H47.1207C48.0955 42.357 48.5034 43.6054 47.7126 44.1773L42.351 48.0716C41.9979 48.3303 41.8487 48.7829 41.983 49.1957L44.0321 55.4972C44.3355 56.4272 43.2712 57.1981 42.4804 56.6212L37.1188 52.7269C36.7657 52.4683 36.2882 52.4683 35.9351 52.7269L30.5736 56.6212C29.7828 57.1932 28.7234 56.4223 29.0218 55.4972L31.071 49.1957C31.2053 48.7829 31.056 48.3253 30.7029 48.0716L25.3414 44.1773C24.5506 43.6054 24.9584 42.357 25.9333 42.357H32.5581C32.9957 42.357 33.3837 42.0785 33.518 41.6607L35.5671 35.3592C35.8705 34.4291 37.1835 34.4291 37.4819 35.3592H37.4869Z" fill="white"/>
</g>
<defs>
<clipPath id="clip0_486_1140">
<rect width="129" height="129" fill="white"/>
</clipPath>
</defs>
</svg>
