<svg width="130" height="129" viewBox="0 0 130 129" fill="none" xmlns="http://www.w3.org/2000/svg">
<g id="Value Icons" clip-path="url(#clip0_486_1327)">
<path id="Vector" d="M64.7539 128.259C100.1 128.259 128.754 99.605 128.754 64.2588C128.754 28.9126 100.1 0.258789 64.7539 0.258789C29.4077 0.258789 0.753906 28.9126 0.753906 64.2588C0.753906 99.605 29.4077 128.259 64.7539 128.259Z" fill="#EF680C"/>
<path id="Vector_2" d="M67.5541 43.3203L51.4795 68.5811L63.9781 66.4624C63.9781 66.4624 61.1034 84.5712 61.2426 84.1484C61.3819 83.7257 77.0884 55.8488 77.0884 55.8488L65.316 57.7885L67.5541 43.3203Z" fill="white"/>
<path id="Vector_3" d="M100.753 66.9447C100.833 66.0296 100.873 65.1095 100.873 64.1844C100.873 50.0893 91.4129 37.5708 77.8648 33.7312L77.1337 33.5223L76.6513 41.5397L66.167 28.8919L78.0936 17.8008L77.5416 26.9124L78.0091 27.0516C91.9948 31.1847 101.758 44.2602 101.758 58.8577C101.758 61.5931 101.42 64.3137 100.758 66.9497L100.753 66.9447Z" fill="white"/>
<path id="Vector_4" d="M19.2568 74.1065L27.4782 70.1376L27.3687 69.6651C24.1409 55.4457 30.7856 40.5349 43.5179 33.4077C45.9053 32.0748 48.4468 31.0403 51.0678 30.3291C50.2323 30.7071 49.4067 31.1199 48.6009 31.5725C36.3063 38.4559 29.9998 52.8296 33.2674 66.5218L33.4465 67.2629L40.678 63.7714L34.7645 79.1L19.2618 74.1115L19.2568 74.1065Z" fill="white"/>
<path id="Vector_5" d="M67.499 101.263C61.2522 101.263 55.1496 99.492 49.8378 96.1448C47.5251 94.6875 45.4064 92.9468 43.5264 90.9822C44.2575 91.5393 45.0135 92.0615 45.7993 92.5539C50.8674 95.7519 56.6914 97.4379 62.6548 97.4379C70.4981 97.4379 78.0181 94.5632 83.8322 89.3409L84.3992 88.8336L77.8789 84.1485L94.1723 82.0298L97.1913 98.0348L89.7806 92.7031L89.4126 93.0264C83.3697 98.3381 75.586 101.263 67.499 101.263Z" fill="white"/>
</g>
<defs>
<clipPath id="clip0_486_1327">
<rect width="129" height="129" fill="white" transform="translate(0.5)"/>
</clipPath>
</defs>
</svg>
