<svg width="129" height="129" viewBox="0 0 129 129" fill="none" xmlns="http://www.w3.org/2000/svg">
<g id="Value Icons" clip-path="url(#clip0_486_1082)">
<path id="Vector" d="M64.25 128.638C99.5962 128.638 128.25 99.9844 128.25 64.6382C128.25 29.292 99.5962 0.638184 64.25 0.638184C28.9038 0.638184 0.25 29.292 0.25 64.6382C0.25 99.9844 28.9038 128.638 64.25 128.638Z" fill="#EF680C"/>
<path id="Vector_2" d="M32.9519 53.9795C32.9519 53.9795 22.6367 78.0914 39.9795 87.7799C39.9795 87.7799 47.9323 91.8931 56.6062 88.6254C56.6062 88.6254 58.6802 92.4253 58.8145 95.3597C58.8145 95.3597 61.2515 95.7725 61.8384 94.8872C61.8384 94.8872 59.9833 79.6531 41.4965 69.6761C41.4965 69.6761 55.1838 71.3025 61.6245 85.1041C61.6245 85.1041 67.5531 73.6351 54.9799 64.1803C54.9799 64.1803 49.688 60.5347 42.2823 59.8384C42.2823 59.8384 33.3547 58.5452 32.9469 53.9795H32.9519Z" fill="white"/>
<path id="Vector_3" d="M60.4509 33.8267C60.4509 33.8267 63.082 38.1189 56.3179 47.882C56.3179 47.882 51.3095 55.7402 52.1003 59.4207C52.1003 59.4207 58.6107 61.9672 60.242 64.9811C60.242 64.9811 63.0322 53.4275 65.6185 51.0452C65.6185 51.0452 61.6844 62.9818 64.4 70.9345C64.4 70.9345 68.349 61.062 80.2905 58.3016C80.2905 58.3016 81.0664 43.4207 60.441 33.8267H60.4509Z" fill="white"/>
<path id="Vector_4" d="M95.5745 53.7012C95.5745 53.7012 97.171 57.5159 82.3497 60.6791C82.3497 60.6791 66.8918 63.0565 65.917 78.9669C65.917 78.9669 65.8971 83.0353 66.9167 85.6216C66.9167 85.6216 70.3684 72.4466 87.3283 69.6067C87.3283 69.6067 70.8856 76.2514 67.0659 94.8575C67.0659 94.8575 68.3591 95.7379 69.5428 95.0714C69.5428 95.0714 71.1393 88.7798 72.706 88.7002C72.706 88.7002 85.1896 93.0422 93.5154 84.2986C93.5154 84.2986 103.408 75.8933 95.5794 53.7062L95.5745 53.7012Z" fill="white"/>
</g>
<defs>
<clipPath id="clip0_486_1082">
<rect width="128" height="129" fill="white" transform="translate(0.25)"/>
</clipPath>
</defs>
</svg>
