<svg width="855" height="81" viewBox="0 0 855 81" fill="none" xmlns="http://www.w3.org/2000/svg">
<path d="M250.645 63.4341C250.645 63.2127 258.614 56.6823 258.614 56.6823H262.967L280.566 42.8098C280.566 42.8098 282.596 37.6077 284.883 36.4639L304.806 19.4185L332.219 41.0758L334.802 47.1266C334.802 47.1266 348.933 55.2065 350.113 54.6162C351.294 54.0259 372.361 38.4562 372.361 38.4562L390.55 52.0336L396.047 52.3287L403.463 58.6747" stroke="white" stroke-width="1.54959" stroke-miterlimit="10"/>
<path d="M304.84 19.4561L292.997 39.0842L297.609 43.1057L283.884 63.2135" stroke="white" stroke-width="1.54959" stroke-miterlimit="10"/>
<path d="M372.392 38.4937L366.157 51.4069L354.867 62.0695" stroke="white" stroke-width="1.54959" stroke-miterlimit="10"/>
<path d="M501.885 4.25281L417.562 38.0254L424.943 56.4517L509.265 22.6791L501.885 4.25281Z" stroke="white" stroke-width="1.54959" stroke-miterlimit="10"/>
<path d="M500.981 25.9863L492.089 29.5651" stroke="white" stroke-width="1.54959" stroke-miterlimit="10"/>
<path d="M530.461 14.2163L513.896 20.8205" stroke="white" stroke-width="1.54959" stroke-miterlimit="10"/>
<path d="M513.887 20.821L506.508 2.37354" stroke="white" stroke-width="1.54959" stroke-miterlimit="10"/>
<path d="M530.458 14.2166L513.929 20.8577L506.55 2.41027C508.616 1.56168 510.903 1.04515 513.302 1.00826C522.119 0.749994 529.498 6.57939 530.458 14.2166Z" stroke="white" stroke-width="1.54959" stroke-miterlimit="10"/>
<path d="M437.074 51.5917H505.514V24.1787" stroke="white" stroke-width="1.54959" stroke-miterlimit="10"/>
<path d="M532.371 37.9033H505.512V43.1055H532.371V37.9033Z" stroke="white" stroke-width="1.54959" stroke-miterlimit="10"/>
<path d="M526.763 15.6929L528.497 19.6775L505.512 28.9013" stroke="white" stroke-width="1.54959" stroke-miterlimit="10"/>
<path d="M523.047 43.1055L515.226 53.6205L526.22 63.2132H519.948" stroke="white" stroke-width="1.54959" stroke-miterlimit="10"/>
<path d="M508.47 63.2134H453.09C450.729 63.2134 448.811 61.2949 448.811 58.9336C448.811 56.5723 450.729 54.6538 453.09 54.6538H508.47C510.831 54.6538 512.749 56.5723 512.749 58.9336C512.749 61.2949 510.794 63.2134 508.47 63.2134Z" stroke="white" stroke-width="1.54959" stroke-miterlimit="10"/>
<path d="M507.656 60.9627C508.777 60.9627 509.685 60.0542 509.685 58.9335C509.685 57.8128 508.777 56.9043 507.656 56.9043C506.535 56.9043 505.627 57.8128 505.627 58.9335C505.627 60.0542 506.535 60.9627 507.656 60.9627Z" stroke="white" stroke-width="1.54959" stroke-miterlimit="10"/>
<path d="M429.722 61.2946V63.2131H407.991V61.2946H412.197V29.5649H414.337V61.2946H429.722Z" stroke="white" stroke-width="1.21753" stroke-miterlimit="10"/>
<path d="M422.348 50.2998L414.342 53.8417" stroke="white" stroke-width="1.21753" stroke-miterlimit="10"/>
<path d="M412.196 57.1254L411.126 57.605L408.617 58.7119L398.065 63.3237H393.195L408.617 56.4244L411.126 55.3175L412.196 54.8379" stroke="white" stroke-width="1.21753" stroke-miterlimit="10"/>
<path d="M423.27 52.2925L414.342 56.1664" stroke="white" stroke-width="1.21753" stroke-miterlimit="10"/>
<path d="M524.626 61.8484L526.766 59.9667L533.296 58.5278C533.296 58.5278 537.355 60.4095 540.417 60.1881L545.029 58.5278L550.6 63.2504H604.356" stroke="white" stroke-width="1.54959" stroke-miterlimit="10"/>
<path d="M429.247 33.3281L454.963 44.4335" stroke="white" stroke-width="1.54959" stroke-miterlimit="10"/>
<path d="M475.302 15.2129L500.981 26.3183" stroke="white" stroke-width="1.54959" stroke-miterlimit="10"/>
<line x1="-4.37114e-08" y1="79.9341" x2="855" y2="79.934" stroke="#FF8500"/>
</svg>
